<svg viewBox="0 0 200 200" xmlns="http://www.w3.org/2000/svg">
  <path fill="#000000" d="M19.9,-37.2C27.2,-30.4,35.2,-27.7,47,-22.2C58.8,-16.7,74.4,-8.3,77.3,1.7C80.1,11.6,70.3,23.3,62.4,35.5C54.5,47.7,48.4,60.5,38.3,67.2C28.2,73.9,14.1,74.4,1.6,71.6C-10.9,68.8,-21.7,62.6,-36,58.4C-50.3,54.2,-68,51.8,-73.6,42.4C-79.1,33,-72.5,16.5,-68.9,2.1C-65.2,-12.3,-64.5,-24.5,-58.1,-32.5C-51.7,-40.4,-39.6,-44,-28.9,-48.8C-18.3,-53.7,-9.2,-59.8,-1.4,-57.4C6.4,-55,12.7,-44,19.9,-37.2Z" transform="translate(100 100)" />
</svg>