<svg viewBox="0 0 200 200" xmlns="http://www.w3.org/2000/svg">
  <path fill="#C1E1C1" d="M31,-50.3C44.4,-45.9,62.4,-46.2,62.2,-38.5C62.1,-30.9,43.8,-15.5,31.1,-7.3C18.4,0.8,11.2,1.6,10.2,7.2C9.2,12.8,14.3,23.2,13.6,29.9C13,36.5,6.5,39.3,-1.3,41.6C-9.2,43.9,-18.3,45.8,-25.9,43.1C-33.4,40.5,-39.4,33.3,-35.7,25.4C-32.1,17.4,-19,8.7,-18.5,0.3C-18,-8.2,-30.3,-16.4,-35,-26.2C-39.7,-36,-36.8,-47.4,-29.7,-55.4C-22.6,-63.4,-11.3,-68,-1.3,-65.8C8.8,-63.7,17.6,-54.7,31,-50.3Z" transform="translate(100 100)" />
</svg>