<svg viewBox="0 0 200 200" xmlns="http://www.w3.org/2000/svg">
  <path fill="#F8C8DC" d="M30.2,-57.7C38.7,-47.3,45.1,-38.5,48.6,-29.1C52.2,-19.8,53.1,-9.9,50.2,-1.6C47.4,6.6,40.8,13.2,38.7,25.1C36.6,37,38.9,54.2,33.2,64.9C27.5,75.5,13.8,79.5,4.5,71.7C-4.8,63.9,-9.5,44.3,-17,34.7C-24.6,25.2,-34.9,25.6,-47.8,21.5C-60.7,17.4,-76.2,8.7,-82.1,-3.4C-88,-15.5,-84.3,-31,-75.6,-42.5C-66.9,-53.9,-53.3,-61.4,-39.9,-69C-26.5,-76.6,-13.2,-84.4,-1.2,-82.3C10.8,-80.2,21.6,-68.2,30.2,-57.7Z" transform="translate(100 100)" />
</svg>