<svg viewBox="0 0 200 200" xmlns="http://www.w3.org/2000/svg">
  <path fill="#C3B1E1" d="M16.6,-35.6C24.6,-24.2,36.3,-25.9,48.2,-22.2C60.1,-18.4,72.2,-9.2,66.5,-3.3C60.8,2.6,37.2,5.3,29.7,16.6C22.2,28,30.8,48,28.5,47.3C26.2,46.7,13.1,25.2,0.8,23.8C-11.5,22.4,-23,41.1,-30.4,44.7C-37.8,48.4,-41,37,-42,27C-42.9,17.1,-41.6,8.5,-46.9,-3.1C-52.3,-14.7,-64.3,-29.4,-60.1,-33.7C-55.9,-38,-35.4,-31.9,-22.7,-40.5C-9.9,-49.1,-5,-72.4,-0.3,-71.9C4.3,-71.3,8.7,-46.9,16.6,-35.6Z" transform="translate(100 100)" />
</svg>